<svg xmlns="http://www.w3.org/2000/svg" data-name="Layer 1" viewBox="0 0 565.2 502.2">
  <path fill="#1b1615" d="m158.6 429-.2 17c-.2 9.7-5 16-14.4 18.4a86.5 86.5 0 0 1-43-.3c-8.6-2.3-13.9-8.1-14.7-17a157 157 0 0 1 1.6-43.3 102.3 102.3 0 0 1 41-65.5c2-1.5 4.2-2.8 6.2-4.2.7-.5 1.2-1.3 1.7-2.5-10.4 1.1-20.5 2.3-29.9-3.2A48 48 0 0 1 87.7 305c-16.9-8.4-23.1-18.4-24.4-39.5-3.9-1.6-8.1-3-12-5a91.2 91.2 0 0 1-46.4-46.2 58.8 58.8 0 0 1 4.4-55 67.6 67.6 0 0 1 18.6-21.9c1-.7 1.8-1.6 2.3-2.6a165.5 165.5 0 0 1 29.5-42.3c0-1 .1-2-.2-2.6a76.3 76.3 0 0 1-5.6-22.7c-.6-4.4 0-8.4 3.8-11.1 3.7-2.6 7.6-1.8 11.3.2l3.7 1.9a29.8 29.8 0 0 1 26-1c.2-1.5.4-2.7.4-4a98.2 98.2 0 0 1 10.6-48c3.6-7 11.2-7 15.3-.1 6 10 10 21 12.5 32.4 1.4 5.8 2.3 11.7 3.5 17.7 2.9-.8 5.7-1.9 8.6-2.2 7.6-1 14.1 1.5 19.8 6.4 6 5.2 9.7 11.8 12.3 19.1.7 2.1 1 4.7 4.5 5.5l8.2-4.5a85 85 0 0 1 28.6-10c9.5-1.5 14.4 3.4 12.5 13a91 91 0 0 1-12.6 31.2l-1.3 2.3a41.4 41.4 0 0 1 20.5 25.9 15 15 0 0 0 9.8 10.3c7 2.4 8 11 2 15.6a37 37 0 0 1-6.2 4.1c-2 1.2-4 2.1-6.6 3.4 5.4 5.6 7.8 12.5 10.3 19.4 1.6 4.3 4.4 7 9 8.6 7 2.2 8.3 10.9 2.6 15.6-2.2 1.8-4.9 3.2-7.8 5 14.2 10 30.2 15.8 44.5 23.7 7-2.6 13.5-5.6 20.3-7.4a63.2 63.2 0 0 1 43 3.4c15.9 7.2 28.7 1.9 40.3-9.1 5.6-5.4 9.3-12 11.5-19.6l.8-2.8c1.1-3.6 3.9-6 7-6 3.4-.1 5.5 1.7 7 4.8a98.7 98.7 0 0 1 8.3 29.5c1.5 12.7.2 25-4.7 36.7-6.3 15.2-17 27-30.7 35.8-5.2 3.4-11.2 5.6-16.9 8.4-.8.5-1.6 1-2 1 .4-.1 1.3 0 2 .6a146.1 146.1 0 0 1 130 84.2c3.2 7 6 14 9.1 21.6 7.9 2.1 12.6 7.8 14 16.4 4-1.4 7.3-2.8 10.8-3.7 6-1.5 11.3.9 12.6 6a22 22 0 0 1 .1 8.3c-.4 3.1-1.6 6-2.5 9.3 1.3 2.3 2.8 4.7 4 7.3 4 9.2 0 15.9-10 15.6a86 86 0 0 1-18.2-2.6c-6.3-1.4-12.4-4-18.6-5.4-4.7-1.1-9.5-2-14.3-2-25-.4-50-.5-75-.7h-5.3c.4 1.9.5 3 1 4 .4 1 1.4 1.8 1.8 2.9 1.3 3 2.6 6 .4 9-2.1 3-5.4 3.2-8.5 2.5-5-1-9.7-2.5-14.4-3.9-1.3-.3-2.5-.8-4-1.3-1.5 1.2-2.8 2.4-4.3 3.4-3.6 2.3-7.1 5-11 6.7-8.7 4-17.2.9-21.6-7.6-1.8-3.5-3-7.3-4.4-11-13.4-3.5-14.2-4.1-16.7-11.9 1.4-7.7 5.7-13 13.6-15.1 7.4-2 14 .7 21.4 3 .3-1.4.8-2.6.8-3.8-1.2-23.2-6-45.5-19.8-64.9a82.2 82.2 0 0 0-47.6-33c-4.8 3.7-9.2 7.4-14 10.6a74 74 0 0 1-29.6 11.4c-2.1.3-4.2.8-6.3 1.4-10.9 3.2-16.2 11-17.9 21.7A82 82 0 0 0 244 434c1.5 6 3.5 11.8 5.4 17.6 3.2 9.9-1.8 19.1-12.1 21.3a117.7 117.7 0 0 1-56.8-1.6 17 17 0 0 1-12.8-12.2c-2.7-9.2-4.8-18.6-7.2-27.9-.5-1.7-.8-3.4-1.5-5-.3-.6-.3 0-.3 0v3Z"/>
  <path fill="#fdfdfc" d="m221.9 257-1-5.2a44.2 44.2 0 0 0-5.4 16.2 108 108 0 0 1-9 29.3c-1 2-2.4 4-3.7 5.9-4 3.8-8.5 6.9-13.7 8.8-8.8 3.3-17.7 1.1-23-6.7-7.5-11-11.2-23.6-14.3-36.4-.3-1.2 0-2.4.8-3.3 1.7-1 3.5-.7 5.3-.4a39 39 0 0 0 19.5-1.8c2.4-.5 4.3-2.4 6.6-2.5 1.2.4 1 1.4 1.3 2 .8 3.6 1.3 7.3 2.4 10.7a17 17 0 0 0 3.4 6c2 2.3 3.4 1.9 6.1-1.1-3.9-1.5-5.4-4.8-6-8.5l-1.7-15.8c-1-3.4 0-6 2.2-8.7 6.9-8.5 13.4-17.3 18-27.3l.8-1.3 6.2-13.3 1.8 1.2a233.2 233.2 0 0 0 67 43.5 59.4 59.4 0 0 1 36.5 45c3.5 18.5-1 35.2-12.4 50.3a71.8 71.8 0 0 1-43.9 27.3c-5.3 1.2-10.5 2.9-15.8 4.3-5.5 2.4-11.2 4.3-16.1 7.8-10.5 7.5-13.6 18-13.3 30.1a64 64 0 0 0 5.2 22.8c.7 1.6 1.8 3.3.9 5.2-2.2 1.9-5 2.1-7.5 2.2-13.8.7-27.6.2-41.1-3a20 20 0 0 0-8.4-1.3l-3.6-18c-2-12-2.5-24.1 1-36a60.3 60.3 0 0 1 34.7-39c5.6-2.5 11.4-4.4 17-6.7l6.4-3c-6.2-.9-11-.2-15.8 1.3l-13.6 4.7c-5.2-2-8-5.7-8-10.7 21-10.3 27.8-29.8 32.8-50.5 2-8 2.2-16 1.4-24.1Z"/>
  <path fill="#f5b7d1" d="M161.6 224.8c-3.7.4-7.3.5-11 1.1-10.7 1.7-14.1 5.3-15.2 16-2.9 2.8-6.7 3.6-10.2 4.8a96.5 96.5 0 0 1-24.2 5.1c-1.7.2-3.7.8-4.6-1.5.6-1.5 2-2.1 3.3-2.9 8-4.9 12-12.1 12.5-21.4.4-6.6-.4-13-1.2-19.4-.6-5.2-5.2-8.4-10.2-6.7-8.6 3-16.8 3-25.3 0a8.7 8.7 0 0 0-11.3 8.1c-.5 8.7-1 17.3 1 25.9a22 22 0 0 0 8.1 12.2c1.3 1 3.5 1.6 3.2 4-3 2-6 1.3-9.1.7-12.7-2.3-24.8-6-36-12.7l-8.8-9c-.7-.4 0-2-1.5-1.6l.4-.1h-.4c.1-1.2-1-1.6-1.7-2.3v.1c0-.5-.4-.8-.8-1.2-1.2-1.5-1.6-3.6-3.2-4.9v.1a60.5 60.5 0 0 1-6.7-23.7c-.4-13.4 5-25 12.7-35.6 2-2.8 4.4-5.3 6.4-8.2 7.7-11 18.6-12.8 31-11.8 12.7 1.1 25.3 2.7 37.8 5.2h1c1.4 1.1 2.9-.4 4.3.1l1.3.3 2 .6c18.5 6.5 36 14.8 49.9 29.2a60 60 0 0 1 17.6 39.2c0 .5-.2 1-.4 1.4-3 3.6-5.7 7.7-10.7 9Z"/>
  <path fill="#f7f6f6" d="M171.7 215c-.8-12-5.2-22.7-12.2-32.5A78.9 78.9 0 0 0 131 159c-8.9-4.7-18.4-8.1-27.6-12.1l-.8-1v.2c-1-.8-2.5-.6-3.2-1.8a129 129 0 0 0-47.6-11.6c-4-.1-8 0-12.3 0a149 149 0 0 1 25.4-35 38.9 38.9 0 0 0 24 19.7 49.6 49.6 0 0 0 31.2-1.3c12.4 5.4 24.4 3.1 36.4-2.7 13 5 25 2.3 36-5.8l3-1.9c.6.5 1 1 1.1 1.7 10 37.2 5.8 71.9-18.4 103-1.6 2.1-3.1 4.9-6.6 4.7Z"/>
  <path fill="#fdfdfc" d="M93.5 418a94.3 94.3 0 0 1 43-76c2-.4 2.7 1.2 3.5 2.4 4.4 6.8 10 12.4 16.5 17.2 3.7 2.7 4.5 5.7 2.6 9.9-4.5 9.8-7.2 20-7.3 30.8a7 7 0 0 1-1.2 4.3c-6 7.6-7.8 16.8-9.3 26-.3.5-.7 1-1.1 1.3a14 14 0 0 1-7.2 1.6 139 139 0 0 1-32.2-2.2c-2.3-.8-4.8-.8-6.9-2.2-.5-.6-.9-1.3-1-2.1v-4c.6-2.3-.4-4.7.6-7Z"/>
  <path fill="#4f79bb" d="M329.8 337.3c79.8-25.2 162 12.7 188 93.5 3.5 7 10.7 3.8 13 12.1 1.6 8.4 6.5 10 14.6 8.4 8 3-1 13 2 18.7-1.3 7.3-10-1-14.3.2-9.7 3.4-17-5-18.7-13.8-29.7-91.8-91.3-127.3-184.6-119.1Z"/>
  <path fill="#bfbebe" d="M171.7 215c5.7-4.2 9.1-10.3 12.9-16.1 6.8-10.5 11-22.2 13.6-34.4a97 97 0 0 0 0-42.2c-1.1-5.5-1.8-11-2.7-16.6l2.6-5.9c0-.6 0-1.3.9-2 4.5 1.6 5 6.9 8.5 10.2 5.4-5.5 8-12.2 9.8-20.2-6-.5-10.6 2-15.3 4.1-1.8.8-3 2.7-5.4 2.2l-5.3-4.2a78.6 78.6 0 0 1 37.5-13.5c-.3 2.6-.3 4.3-.7 6a80.2 80.2 0 0 1-14.8 32.5c-3.3 4.4-4 8.4-2.3 13.8 7.6 24.6 8.1 49.1-1.5 73.4a90.2 90.2 0 0 1-22.1 32.3c-3.3-7-9.8-7.7-15.9-9.2-2-3-1.7-6 0-9l.2-1.1Z"/>
  <path fill="#3863ac" d="M355.8 337c5-.9 10.4-1.6 15.6-1.8 4.9 0 9.8 1 14.7 1.5 8.6.5 17 2.4 25.3 5 28.2 8 52.3 26.8 70.7 49.2a199.7 199.7 0 0 1 34.4 68c1.6 4.8 4.2 8.6 9 10.2 1.6.5 3.3 1 4.7.5 1.4-.3 2.9-1.3 4.3-1.2 3.8.4 7 4.3 10.9 3.3 2.4-.8.5-3.3 0-4.8s-.4-2.7.2-4c.8-2.3 3.3-5.2 1.8-7.8-1.5-2.7-3.7-4 .6-5.5 2-1 7-2.2 7.8 1-.2 3.5-1.4 7-2.3 10.5-.8 2.9-.5 5.8 1 8.6 1 2.3 3 4.1 3.4 6.7 1.2 7.4-11.4 4-15.3 3-9.6-2.3-19.1-5.3-28.8-7.8-2.3-.8-6.1 0-7-2.8-20-73.9-72.7-127.5-151-131.8Z"/>
  <path fill="#b92145" d="M416.3 474.7c.1 1 0 2.1 0 3.2-.3 3 1.4 5.9 2.4 8.7.9 4.6-13.2-2.3-15.4-2.4-5.8-1.5-11 2-15.4 5.5-4 2.5-8.8 5.4-13.8 5-7.8-1.5-7.7-12.6-11.9-17.4-2.2-2.4-5.7-2.7-8.8-3.5-2.7-.6-5.7-1.8-5-5a8 8 0 0 1 6-6 22 22 0 0 1 6.8-.2c3.9.5 7.6 1.1 11.4 2 2.5.8 5.2.6 7.2-1.1a9 9 0 0 0 4-7.8c0-12.8-2-24.8-5.4-36.7-5.9-20.9-17-39-34.2-52.8-1-.8-3-2.5-2.2-3.5.5-.6 2.2-.5 3.6.2 2 .9 3.7 2.2 5.5 3.4 20 14.1 32.6 33.9 39.6 56.7 3.5 11.7 9.7 32.1 2.6 43-1.8 2.5-2.6 6.4 1.8 6.3 2.8-.3 5-2.4 7.7-3.3 5-2 12 0 13.4 5.5v.2Z"/>
  <path fill="#70bc47" d="M364.6 349c-6-1.4-12.4-2.3-18.4-4-2.1-1.1 3.8-.9 4.4-.9 74.7.4 130 53 148.9 123.4.6 2-.6 3-2.4 3-4.4.1-8.9.6-13-.6-2-.9-2.4-3-2.9-5-5.3-24-15.6-45.6-31-64a156.6 156.6 0 0 0-85.4-51.8h-.2Z"/>
  <path fill="#3fad49" d="M369.9 350.3c.1-.4 2.3-.3 3.8 0 6.8 1.7 13.4 4.5 20 7a152 152 0 0 1 89 108c.4 1.8.8 4.7-1.6 4.7h-11.8c-1.9 0-2.9-1.2-3.3-3-1.7-5.8-3.3-11.3-5.3-16.8-14.4-42.3-43.7-81.4-86.3-97.5-1.3-.6-4.3-1.5-4.5-2.3Z"/>
  <path fill="#ea315c" d="M416.1 473.5c-1.4.2-3-1-4.2-1.7-5-3.4-9.5-1.7-14 1.5-3.2 2.4-9.7 1.2-8.4-3.6 1.7-3.6 5-6.9 5.3-11 1.3-17.6-5.8-38.7-13.4-54.8a89.9 89.9 0 0 0-24.7-31.3c-3-2.5-5.9-5.1-9.1-7.2-2.5-1.5-5.4-2.3-7.5-3.6-1.6-1-3.6-1.9-4.8-3.3l-.2-.3v-.2c.4-.5 3.1.2 4.1.6 46 14.6 73.1 59.2 78.4 105 .2 3 2 8.5-1.3 9.8h-.2Z"/>
  <path fill="#f6e71d" d="M357.6 354.8c50 11.6 84.5 56.3 98.9 103.6.9 2.9 2 5.8 2.7 8.8.9 3.7-3.6 2.9-6 3-4.7 0-10.7 1.1-11.9-5C430.4 419.6 402.4 375 357 358c-1.8-.8-4.6-1.7-5.9-2.7l-.5-.8.2-.4.4-.2c2-.4 4.2.5 6.3 1h.2Z"/>
  <path fill="#995fa6" d="M423.6 221.7c-2.3 30-37.3 56-66 45.3a47 47 0 0 0-15.6-4c-7.4-.6-14.8.5-22.3 1.3-1.9.2-3.7-.3-5-1.7l-6.7-7c-2-2-1.6-3.4 1-4.4a61 61 0 0 1 51.8-.8c4 1.6 8 3 12.3 3.5a44 44 0 0 0 47.7-33.7c.6-1.3.7-3.5 1.8-4.4 1.3.3 1.3 4.2 1 5.7v.2Z"/>
  <path fill="#bdb231" d="M355.6 357.5a22 22 0 0 1 8.4 2.2c6.6 3 12.8 6.5 18.7 10.6 32.2 22.3 51.7 58.8 60.7 96.1.9 2.5 0 3.8-2.6 3.8H430c-2.9 0-4.5-1.5-4.9-4.4l-2-11c-7.7-43.5-29-75.9-67.5-97.3Z"/>
  <path fill="#f5b7d1" d="M176.6 439c6 .9 12 2 18 2.5 10.7.7 21.4 2 32-1.3.5-.4 1-.4 1.4 0 2 4.3 4 8.5 5.2 13 1 4.4 1.7 9-1.6 12.8-3.1.7-6.2 1.6-9.3 1.8-11 .8-22 .6-32.8-2-6.7-1.5-9.3-6.6-11-12.6l-2.7-9c-.4-1.8-.8-3.7.8-5.2Zm11.1-106.8c1.7 4.1 4.6 7.3 8 10.1l-3.9 2a47.4 47.4 0 0 1-49.3-18.2 165.7 165.7 0 0 1-17-47c4.2-2 8.4-3.8 13.3-3.2l5.7 21.1a61.4 61.4 0 0 0 17.7 29.3c7.1 6.3 15.4 7 24.2 5.2.6 0 1 .3 1.3.7Z"/>
  <path fill="#f1ea60" d="M106.6 92c-3.7-8-4.5-17.5-1.3-25.9 4.2-11.2 21.4-8.9 27-.5 1 1.9.5 4.5.4 6.9-.2 3.5 0 7 .7 10.3a62 62 0 0 0 3.1 11.2c.8 2 1.3 4.3.8 6.5-1.7 9.3-13.3 6.2-19.3 2.6a31.1 31.1 0 0 1-11.3-11h-.1Z"/>
  <path fill="#bb899f" d="m31.4 238.1 13.4 5c9.4 3.5 19 6.6 29 7l3-.3.7-.2c.8-.2 1.7-.3 2.6-.3a29 29 0 0 0 13.3.2c1.1-.3 2.4-.4 3.2.7.8.3 1.5.9 2.2.8 10.9-1.6 21.7-3.2 31.9-7.8 1.4-.7 3.1-.9 4.7-1.2.5 5.7 1 11.5 1.4 18.1-6.4 1-12.5 2.3-18.7 2.7-15.4 1-30.9 1-46-2.7a88.2 88.2 0 0 1-39.1-20c-.6-.6-1-1.3-1.5-2Z"/>
  <path fill="#995fa6" d="M180.3 92c.6.5.5 1.2 0 1.8-5 9.8-19 10.6-27.2 5.8a36.1 36.1 0 0 1-10.7-10.2c-3-7.3-4.5-14.6-1.2-22.2 2.9-3.5 7.7-4.8 12.2-4.5 10 .3 15.8 9.7 19.5 17.9 2 4 2.6 9.2 7.2 11.4h.2Z"/>
  <path fill="#f5b7d1" d="M99.6 432c3.6.4 7.2.6 10.8 1.1 10 1.6 20.1 1.4 30.2 0 2 8.5 3.5 16.9-2.1 24.7-9.3 2.6-18.8 2-28.2.8-2-.3-3.9-.9-5.8-1.3-4.8-1.8-6.6-5.7-6.3-10.4.3-5-1.4-10.2 1.4-15Zm79.1-167.9c-6.6 3.6-13.6 3.2-20.7 2.6l-5.4-.7a3 3 0 0 1-1.2-1.3 77 77 0 0 1-2-28.3c.1-1.7 1-3.1 2.2-4.3 6.3-2 12.6-1.7 19-.9 8.1 2.4 9.3 3.8 9.4 12.3 0 4.8-.1 9.6.8 14.4.4 2.3.1 4.7-2.2 6.2Z"/>
  <path fill="#d395c1" d="M96.5 70.1c.7 4.8 0 9.9.9 14.6.6 4.1 1.7 8.2 3.2 12.2 1.9 4.1-.3 8.8-5 9.2-12.4 1-23.7-9-26.6-20.7-2-8 1-18 9.8-20 4.8-1.4 15.8-.9 17.7 4.6v.1Z"/>
  <path fill="#f5b7d1" d="m85.6 270.3 1.9.1 11.3 4.8a29.2 29.2 0 0 1 16.2 17c0 .6-.2 1-.5 1.5-6.3 4.6-13 7.9-21 6.3-1.8-1-3.3-2.3-5.1-2.9a20.5 20.5 0 0 1-12-9.8c-3.5-6-5.4-12.6-5.8-20l14 2.8c.3.3.6.4 1 .2Z"/>
  <path fill="#bfbebe" d="M227.5 440.2h-1a59.4 59.4 0 0 1-5.7-41.4c3.3-11 11-17.9 21.5-21.7 2.4-1 5-1.3 7.6-1.9-12 8-16.2 19.6-16.4 33.3-.2 9.4 1.4 18.5 3.5 27.6l.5 3c-3.2 2-6.4 3-10 1.1Z"/>
  <path fill="#f1ea60" d="M422.4 251.5c-8.7 22.1-29.6 45.8-56 40.2a68.4 68.4 0 0 0-33.6-4.2c-1.7.2-3.6.4-5-.6-2-2.2-4-7-3.7-10.3 2-4.8 18.2-4.1 22.4-2.5a60.8 60.8 0 0 0 76-22.6Z"/>
  <path fill="#bfbebe" d="m152.4 265 .2 1c2.7 8.7 5 17.4 8 26 1.4 4 3.4 7.8 5.7 11.4 5.6 8.7 14.4 11.2 23.7 6.8 3.5-1.6 6.5-3.9 9.8-5.8 1-.6 2-.8 3-1.2a30.2 30.2 0 0 1-21.3 17 17.8 17.8 0 0 1-17.3-5.2 65 65 0 0 1-10-14 104.9 104.9 0 0 1-9.8-35.8c-.3-.8-.4-1.6.5-2.3 2.7-.3 5.3.4 7.5 2.1ZM141 432.2c-.2-8 1.1-15.5 6-22a20 20 0 0 0 3.8-12c.2-8.2 2.3-16.2 5.6-23.8 1.1-2.4 2-5 3.1-7.6-.6-.8-1-2-1.9-2.7a83 83 0 0 1-21-22c1.4-1 3-2 4.5-3.2a67.7 67.7 0 0 0 27.5 25.8 73.3 73.3 0 0 0-11.7 45.2c-4 6-5 13-5.7 20-3 2.7-6.2 4.5-10.2 2.3Z"/>
  <path fill="#d395c1" d="M430.7 259.8c.4.8-.3 3.5-.8 4.8-2 6.7-7 13.2-11 18.2-2.3 3-4 6.2-6.3 9.3-8 10.2-30.8 22.5-43.6 21.8-6.8 0-13.5-1.5-20.3-2-5.6-1.1-18.2 2.9-18.8-4.5 0-4 4.3-7.2 8-8 17.2-4 29.8 10.4 53.2-.9a89.2 89.2 0 0 0 31.8-26.9c2.4-3.2 5.7-10.1 7.2-11.6.2-.2.4-.4.6-.3Z"/>
  <path fill="#864a9a" d="M317.3 264.4c.1-.3.5-.6 1-.8 3.2-1.2 6.5-2 9.9-2.3A60 60 0 0 1 357 265a38 38 0 0 0 15.8 2.9 58.5 58.5 0 0 0 45.2-30.4c.5-1.2 3-4 2.3-1-7 26.2-37 43.3-62.6 34-5.9-2.3-12-4-18.2-4.2-5.8-.3-11.6.4-17.6 2.4-2.3 1-3.2-.8-4.3-2.7-.3-.5-.6-1-.5-1.5Z"/>
  <path fill="#f7f6f6" d="M93.4 300c7.6-.6 14.5-3.1 21-7 1.6 1 1.7 2.8 2.2 4.4 2.5 8 5.7 15.8 9.4 23.4.6 1.3 1.8 2.5.5 4-11.1 1.5-19.6-3.2-26-11.9-2.8-4-4.7-8.5-7-12.9Z"/>
  <path fill="#b06ca7" d="M329.7 304.5c.3 1.9-.2 6 3.6 6 5.5-.3 10.9-1.4 16.4-1 14.8.6 16.7 5.9 32.9 0a80 80 0 0 0 29.5-19.3c2.2-2.6 3.7-5.6 5.8-8.4 2-2.5 3.8-5.2 5.5-8 .6-1.1 2.8-4.3 3.6-3.4.5.4.1 2.4-.3 3.4a57 57 0 0 1-8.6 14.9c-11.5 15-28 28-47.4 28.7-5 .1-10-1.8-15-2.8a35.1 35.1 0 0 0-23.5 3.4c-4 1.8-3.8-1.4-3.4-5.1.3-2.6.5-6.5.9-8.4Z"/>
  <path fill="#b9b942" d="M328.9 289.2c2.2-3 6.2-3.5 10.5-3.7 7-.1 14 1.3 20.8 3.2 5.4 1.5 11 3 16.6 2.3a52.7 52.7 0 0 0 36.2-24c3.1-4.6 6-9.3 8.8-14.1 1.6-2.9 3-4.6 3.5-4 .6 1-1.2 6.4-2.1 8.4-9.5 21.4-29.4 38.1-52.9 39.1-8.1.1-16-3.4-24-4-4.8-.8-11.1 1.2-15 .5-2-.2-3.7-1.7-2.5-3.5v-.1Z"/>
  <path fill="#efd4df" d="M96.6 145.1c-.6.3-1.2 1-1.7.8a149.2 149.2 0 0 0-32.8-4c-3 0-6.2-.7-9.3-.8-9-.5-16.6 2.2-22.3 9.5-5.7 7.3-12 14.2-15.6 22.8-3 7-5.6 14.3-5.2 22a53 53 0 0 0 4.6 19.1c.6 1.5.8 3.1 1.1 4.7-9-14-10.2-29.1-5.2-44.8a68.3 68.3 0 0 1 22.2-31.3c3.5-3 7.8-3.6 12-4 12.8-1.5 25.3 0 37.7 2.5 4.9 1 9.7 2.3 14.5 3.5Z"/>
  <path fill="#bb899f" d="M142.5 326c.9.5 2 .6 2.5 1.3a46.7 46.7 0 0 0 36.4 16.8l10.4.1-19.6 14.3c-14-6.3-23-18.1-29.7-32.4Z"/>
  <path fill="#864a9a" d="M142.6 90.3c.2-.1.8.2 1.5.7 1.4 1 2.7 2.2 4 3.4a23.3 23.3 0 0 0 19.1 6.7c4.3-.2 7.8-2.6 10.7-5.7 1-1 2.3-2.4 3.6-2.4 2.9.7 5.5 3.1 8.4 4.6 1.7 1 1.5 2.3 0 3.5a29.8 29.8 0 0 1-18.5 7.8c-12.4.4-25.2-6-28.8-18.5Z"/>
  <path fill="#b9b942" d="M258.6 212c1 2.5-5 5-6.8 6.4a5.2 5.2 0 0 1-6.5-.2 182 182 0 0 1-24.6-21c-2.2-2.4-1.2-5.2-.4-8.2 1.7-7.8 3.9-5.7 6.9 0a45.7 45.7 0 0 0 28.4 21.5c1 .2 2.5.7 3 1.4v.1Z"/>
  <path fill="#f1ea60" d="M258.3 211.2c-.4.7-2.5.4-3.5.2a45.3 45.3 0 0 1-28.9-21.2c-1.6-2.6-3.9-5.1-3.9-8.3-.2-6 4.1-7.5 8.4-4a38.5 38.5 0 0 1 12 17.6c2.5 7.2 7.7 10.8 14.2 14 1 .6 1.8 1.2 1.7 1.6Z"/>
  <path fill="#995fa6" d="M251 160.3c-.7 3.2-6.9 2.6-9.6 2.2-8-1.4-15.5-6.2-18.6-14.7-1.9-6.2-3.1-12.5-4.7-18.8-.2-.7-.2-1.8.5-2.2 2-1 4.4 1 5.8 2.5 3 3.3 5.8 7 7.6 11 1.7 4.1 2.9 8.6 6.1 11.8a10 10 0 0 0 4.3 3.1c1.8.8 3.6 1.8 5.4 2.8 1.2.6 2.9 1.3 3 2.1l.1.1Z"/>
  <path fill="#bfbebe" d="m187.7 332.2-1-.1c-1.6-1.4-1.9-3.2-1.3-5.2 16.4-5.9 24.6-19 30.1-34.3A88.5 88.5 0 0 0 222 257a47 47 0 0 1 .6 20.4A110 110 0 0 1 211 311a45.5 45.5 0 0 1-17.8 18.9c-1.7 1-3.6 1.5-5.5 2.3Z"/>
  <path fill="#bb899f" d="M196.6 94a40.4 40.4 0 0 1 21.2-8.2c1.4 6.8-5.6 21.5-11.2 24.2l-7.1-12-1.4 1.8-1.5-5.7Zm-82.1 198.2c-1-1.5-2.1-2.9-3-4.4a22 22 0 0 0-9.6-9.6c-3.4-1.7-7-3-10.3-4.7-1.5-.8-2.8-2-4.1-3l14.3.4h14c1 4.7 2.3 10 3.6 15.2-.7 2.8-1.5 5.6-5 6.1Zm113 148 10-1.2c1.7 5.1 3.6 10.2 5 15.4 2 7.1-2.2 11.4-11 11.6 2.4-7.5.6-14.4-2.9-21.1-.7-1.4-.8-3.1-1.1-4.7Z"/>
  <path fill="#bfbebe" d="m114.5 292.2 4.9-6 12.8 38-5.7.7-11-27c-.6-1.5-.8-3.2-1.1-4.8v-.9Z"/>
  <path fill="#bb899f" d="M151.9 264.8c-.9.8-3.8-.4-5.6-.2-1.2 0-2.2.1-2.3-1.5-.8-8.3-2.4-16.7-2-25 .4-3 2.4-4.9 5.7-5.8 1.3-.4 3.4-.6 3.6 1.1a97 97 0 0 0 .8 28.8c.1.8.3 2-.1 2.5h-.1ZM141 432.2l10.2-2.2c0 5.6.2 11.2 0 16.8-.2 5.4-3.3 10.8-12.7 11 3.4-8 1.8-16.5 2-24.7l.5-1Z"/>
  <path fill="#b9b942" d="M106.6 92.4c1-.5 2.3 1.3 2.9 2a31.8 31.8 0 0 0 19.5 11.3c3 .4 6-1.9 7.4-4.4.8-1.4 1.1-5.2 3.2-2.6l7 8.6c1.2 1.4.7 2.4-1 3a31.2 31.2 0 0 1-29.3-4.7c-4.2-3-7.7-6.5-9.6-11.3-.2-.5-.5-1.6-.2-1.9Z"/>
  <path fill="#b06ca7" d="M69.6 87.2c6.1 9.3 13.9 18.6 26.5 17.9a3 3 0 0 0 1.7-.6c1.1-1.1 2.2-2.6 3.3-3.8.3-.2.6-.4 1-.3 2.8 3 5.3 6.5 8.2 9.8 1.6 1.7-5.9 2-6.7 2.1-15.2.3-32.7-8.4-34-25.1Z"/>
  <path fill="#bb899f" d="m185.4 326.9 1.3 5.2a24.1 24.1 0 0 1-24.8-4.3 58.8 58.8 0 0 1-18-29.6c-.2-.3.3-.8.6-1.2 1.5 3.1 2.7 6.4 4.6 9.2 3 4.7 6 9.5 9.9 13.5a26.6 26.6 0 0 0 26.4 7.2Z"/>
  <path fill="#864a9a" d="M222.6 146.2c.7.4 2 2.7 2.8 3.8 5.4 9.6 12.5 10.6 22.6 12 1 .2.9.6.3 1-5.3 3.9-12.2 8.8-18.7 4.6-1.6-1.2-4-1-5.5-2.2-.3-.2-.4-.5-.5-1l-1.1-17.2v-1Z"/>
  <path fill="#efd4df" d="M176.6 439a59 59 0 0 0 6.2 21.3c1 2 2.6 3.8 5.4 3.9.4 0 .9 1 1.4 1.6l-6.8-1.4a11 11 0 0 1-8.7-8.1c-1.6-5.7-3-11.5-4.5-17.3l1.9-1.9 5 2Z"/>
  <path fill="#c9a0c6" d="M180 91.8c-.4.6-2 .2-2.8-.5-2-1.7-2.6-4.5-3.8-6.8-2.8-6-6-12.4-10.8-17-5-4.4-12.6-4.8-18.4-1.8-1.4.7-3.7 1.6-2.6-.3 7-10.6 22.5-4.2 28 4.6 4 6.3 6.9 13.3 10.2 20.1.2.5.5 1.3.2 1.6v.1Z"/>
  <path fill="#efd4df" d="M178.7 264.1c.3-2 .9-4.2.8-6.3-.1-5-.8-10.2-.9-15.3 0-5-1.2-9.1-6.8-10.4-.4-.1-.8-.6-1.2-.9 2 .3 4 .3 5.9.8 4.6 1 7 3.9 7.3 8.7l1.5 22.3-1.1-1.3-5.5 2.4Z"/>
  <path fill="#e49950" d="m362.9 323.3-36 6.6c7.7-9.6 23-12.4 36-6.6Z"/>
  <path fill="#ecc627" d="M123.3 17.4c-.3 3.6-3.7 7-6.9 8.8l-2.4 1c-3 1-5.3.7-4.7-2.7 1-5.3 3.4-11.3 6.3-15.6 1.9-2.7 3.5-.9 4.9 1.8 1 2 2.7 4.3 2.8 6.5v.2Z"/>
  <path fill="#efd4df" d="M104.5 457.3c-14-1.5-11-17-11.7-27.2.2-.4.5-.4.8 0l6 1.9c1 8.5-3 19.3 5 25.3Z"/>
  <path fill="#bb899f" d="m138.8 276-13.3 3-2.6-9.2 14.6-2.5 1.3 8.6Z"/>
  <path fill="#ede7a7" d="M248.2 205c-3.1.8-6.4-8-7.5-10.4-2.4-6-8.8-17.1-15.6-18-2.1 0-2.8-1.9-1.9-3.5 1.5-2 9.3 3.4 10.7 4.7 5.6 5 8.3 12.4 11.2 19l3 6.8c.3.6.4 1 .2 1.3ZM133 68.7a15.7 15.7 0 0 0-11.4-8.5c-5-1-11-1.2-14.2 3.5-.8 1-1.3.3-.8-.7 3-7 10.7-10.2 18.1-7 4 1.6 7.7 4.2 10 8.1 0 1.4-.9 2.8-1.3 4 0 .3-.1.6-.3.6Z"/>
  <path fill="#c9a0c6" d="M239.6 153.9c-4 1-6.4-7.5-7.6-10.3a33.8 33.8 0 0 0-10.5-15.2c-1-1-2.6-1.2-3.7-2.1-.6-.7-.8-1.6-1.1-2.4-.2-.6-.2-1.2 0-1.5.3-.3.7-.2 1.2 0a28.8 28.8 0 0 1 15.2 15.5 1052.5 1052.5 0 0 1 6.5 15c.1.3.2.7 0 .9Z"/>
  <path fill="#bfbebe" d="M209.7 218.2c0 5.2-3.8 8.7-6 12.9-1.6 3.4-4.1 6.3-6.4 9.4-2.3 3-4.8 5.9-7.4 9l-.4 4.6-.8-11.3a123 123 0 0 0 21-24.6Z"/>
  <path fill="#ddbcd1" d="M96.8 69.7c-.4.2-1-.2-1.6-.5-6.6-3.8-13.4-4.6-20.4-.6-1 .7-3 .9-2-.9 4.3-6.5 17-7.9 24.1-3 1.1.8 1.2 1.8.9 3.1-.2.9-.4 1.7-.9 1.9Z"/>
  <path fill="#ecc627" d="M131 41.7c.7 1.3.8 3.2 1.2 4.5.4 1.7.6 3.3.6 5-.2 1.3-2.3-.4-3-.5l-6.3-2.6-.4-.4c.5-1.1 2.5-2 3.6-3l3.7-3h.5Z"/>
  <path fill="#bb899f" d="m171.6 216.1-.1 9.1-10-.3 10-8.8Z"/>
  <path fill="#efd4df" d="M62.4 73.1c0-3.5-3.2-7.4 0-11.4l4.4 1.5-4.4 10Z"/>
  <path fill="#ecc627" d="M128.3 31.4c0 .8-.3 1.7-.8 2.4a18 18 0 0 1-8.9 8c-2.7 1-5.7 1.3-8.4 1.2-2.5 0-4.2-.8-3.8-3.6.1-8 5.3-3.9 10.3-6.7 2.7-1.4 5.3-3 8.1-4.6 2.5-1.6 3.7.2 3.6 3v.3Z"/>
  <path fill="#1b1615" d="M96.6 250.2c-6.1 2-12.9 1.9-18.9-.1-5-2.5-9.6-6.5-12.3-11.5-2.7-5.6-2-12.5-2.5-18.7-.4-7.7-1.6-20.7 9-21.6 4.5-.3 9.3 2.2 14 2.5 3.1.2 6.3 0 9.3-.8 5.6-1.7 13-3.6 16 3 2.4 5.3 1.4 11.5 1.8 17.2 1 13.4-2.7 24.6-16.2 30h-.2Z"/>
  <path fill="#1f1f20" d="M41.5 160.7c-1.8-3-1.5-4.8 1-7.1 2.4-2.3 4-2.4 6.9-.5-.4 5.4-2.6 7.5-8 7.6Zm83.2 10c5.8 1.1 7.7 4.8 5.5 10-2.5 1.3-4-.1-5.3-2-1.6-2.5-2.3-5-.2-8Zm14.2-29.9c-1-2.4-.4-4.3 2-5.4 11.6-5 26.6-.9 33.9 9.5-3.7-1-6.7-2.2-9.8-2.8-3-.5-6.3-2.2-10 .5 2.4 5 6.5 9.6 5.2 16-3.4-3.6-6.3-7.2-9.8-10.1-3.5-3-7.6-5.2-11.5-7.7Zm-53.2-15.4-2.3 2.9c-8-1-15.9-1.5-24.2 2.5a10 10 0 0 1 5.3-6.5c2-1.3 4.2-2.2 7-3.6-4.4-4.9-10-5.9-15.7-7.8 10.5-4.6 24.1 1.1 30 12.5Z"/>
  <path fill="#f7f6f6" d="m72 235-2.3-11 10-2.7v-.7l-9.8-3.3c.4-4.3-2-8.9 2.6-12.5a37.2 37.2 0 0 0 31.3 0c3.6 3.6 1 8 2.4 12-5.4 1.6-10.2 3-15.1 4.2v.7l14.5 2.4a14 14 0 0 1-2.4 11.8c-10.3 8.1-21.4 7.8-31.3-1Z"/>
  <path fill="#bfbebe" d="M72 235c1 .3 2.1.5 3 1.1a23.1 23.1 0 0 0 25 1c1-.5 2.1-.8 3.2-1.2-3.8 6.9-10 8.8-17.3 8.3-6.4-.5-11.6-2.8-14-9.3Z"/>
</svg>
