<svg xmlns="http://www.w3.org/2000/svg" xml:space="preserve" id="Layer_1" x="0" y="0" version="1.1" viewBox="0 0 512 296.1">
	<style>
	  .st0{fill:#f7b239}.st2{fill:#9ad14b}.st5{fill:#b27214}.st8{fill:#fff}
	</style>
	<path d="M503.2 215.9v22.6a48.8 48.8 0 0 1-48.8 48.8H57.6a48.8 48.8 0 0 1-48.8-48.8v-22.6c0-10.2 8.3-18.6 18.6-18.6h109.2l37.1 37.1 37.1-37.1h273.9c10.2 0 18.5 8.3 18.5 18.6zm0-114.9c0 10.3-8.3 18.6-18.6 18.6H27.4a18.4 18.4 0 0 1-18.5-18.5 92.1 92.1 0 0 1 63.9-87.8l50.4 50.4a23 23 0 1 0 32.5-32.5L133.3 8.8h67.6l54.8 54.8a23 23 0 1 0 32.5-32.5L265.9 8.8h67.6l54.8 54.8a23 23 0 1 0 32.5-32.5L398.5 8.8H411a91.8 91.8 0 0 1 92.2 92.2z" class="st0"/>
	<path fill="#e09b2d" d="M136.1 287.3H57.6a48.8 48.8 0 0 1-48.8-48.8v-22.6c0-10.2 8.3-18.6 18.6-18.6h78.5a18.6 18.6 0 0 0-18.6 18.6v22.6c.1 27 21.9 48.8 48.8 48.8zM92.8 114.2c3.4 3.4 8 5.4 13.1 5.4H27.4a18.4 18.4 0 0 1-18.5-18.5 92.1 92.1 0 0 1 63.9-87.8L105.6 46a92.1 92.1 0 0 0-18.2 55c0 5.2 2 9.8 5.4 13.2z"/>
	<path d="M189.3 66.2a23 23 0 0 1-29.5-2.5L105 8.8a91.7 91.7 0 0 1 84.3 57.4zM105 8.8h-1.1 1.1z" class="st0"/>
	<path d="M483.6 158.5v38.8H210.7l38.9-38.8z" class="st2"/>
	<path fill="#f95428" d="M483.6 119.6v38.9H28.4v-38.9z"/>
	<path fill="#e54728" d="M86.3 119.6v38.9H28.4v-38.9z"/>
	<path d="M420.8 31.2a23 23 0 1 1-32.5 32.5L333.5 8.8h65l22.3 22.4zm-132.6 0a23 23 0 1 1-32.5 32.5L200.9 8.8h65l22.3 22.4z" class="st5"/>
	<path fill="#f4de3b" d="m249.6 158.5-38.9 38.8-37.1 37.1-37.1-37.1-38.8-38.8z"/>
	<path d="M155.7 31.2a23 23 0 1 1-32.5 32.5L72.8 13.3a91.1 91.1 0 0 1 28.3-4.4h32.3l22.3 22.3z" class="st5"/>
	<path d="M136.5 197.3H28.4v-38.8h69.3z" class="st2"/>
	<path fill="#90bc42" d="M86.3 156.5v38.9H28.4v-38.9z"/>
	<path d="M474.4 95.2c-4 0-7.7-2.8-8.6-6.9a55.7 55.7 0 0 0-15-27.1l-2.3-2.2a8.9 8.9 0 0 1 11.8-13.2l3 2.9a74.6 74.6 0 0 1 19.8 35.6 8.8 8.8 0 0 1-6.6 10.6l-2.1.3zm-108.2-6.6c-2.3 0-4.5-.9-6.2-2.6l-21.4-21.4a8.8 8.8 0 0 1 12.5-12.5l21.4 21.4a8.9 8.9 0 0 1-6.3 15.1zm-136.6-3.9c-2.3 0-4.5-.9-6.2-2.6l-21.8-21.8a9 9 0 0 1 0-12.5 9 9 0 0 1 12.5 0l21.8 21.8a9 9 0 0 1 0 12.5 9.1 9.1 0 0 1-6.3 2.6z" class="st8"/>
	<circle cx="189.7" cy="35.9" r="8.8" class="st8"/>
	<circle cx="327.9" cy="41.4" r="8.8" class="st8"/>
	<path d="M479 255.4c-4.9 0-8.8-4-8.8-8.8V223c0-4.9 4-8.8 8.8-8.8s8.8 4 8.8 8.8v23.6c0 4.8-3.9 8.8-8.8 8.8z" class="st8"/>
	<path fill="#333" d="M492.5 189.6v-62.4A27.4 27.4 0 0 0 512 101C512 45.3 466.7 0 411 0H101C45.3 0 0 45.3 0 101c0 12.4 8.2 22.8 19.5 26.2v62.4A27.5 27.5 0 0 0 0 215.9v22.6a57.6 57.6 0 0 0 57.6 57.6h396.8a57.6 57.6 0 0 0 57.6-57.6v-22.6c0-12.4-8.3-22.9-19.5-26.3zm-17.7-40H37.2v-21.2h437.6v21.2zM37.2 167.3H94l21.2 21.2h-78v-21.2zm81.8 0h109.3l-54.6 54.6-54.7-54.6zm134.2 0h221.6v21.2H232l21.2-21.2zM414.6 57.4a14.2 14.2 0 0 1-20 0l-39.7-39.7h40l19.7 19.7a14.2 14.2 0 0 1 0 20zM282 37.4a14.2 14.2 0 0 1 0 20 14.2 14.2 0 0 1-20 0l-39.7-39.7h40L282 37.4zM129.7 17.7l19.7 19.7a14.2 14.2 0 0 1 0 20 14.2 14.2 0 0 1-20 0l-39-39c3.5-.4 7-.7 10.6-.7h28.7zm-59.2 5.8 46.4 46.4a31.6 31.6 0 0 0 45 0 31.9 31.9 0 0 0 0-45l-7.2-7.2h42.6l52.2 52.2a31.6 31.6 0 0 0 45 0 31.9 31.9 0 0 0 0-45l-7.2-7.2h42.6l52.2 52.2a31.6 31.6 0 0 0 45 0 31.9 31.9 0 0 0 0-45l-6.7-6.7c41.6 4.7 74 40 74 82.8 0 5.4-4.4 9.7-9.7 9.7H27.4a9.7 9.7 0 0 1-9.7-9.7 83.4 83.4 0 0 1 52.8-77.5zm423.8 215a40 40 0 0 1-39.9 39.9H57.6a40 40 0 0 1-39.9-39.9v-22.6c0-5.4 4.4-9.7 9.7-9.7h105.5l34.5 34.5a8.7 8.7 0 0 0 12.4 0l34.5-34.5h270.2c5.4 0 9.7 4.4 9.7 9.7l.1 22.6z"/>
  </svg>