<svg xmlns="http://www.w3.org/2000/svg" data-name="Layer 1" viewBox="0 0 511.3 395.3">
  <path fill="rgba(230,230,230,0.2)" d="M510.7 272c-4.2-9-3.9-19.6-7.5-28.8-2.9-6.4-8.4-10-12.2-15.9-5.2-6.9-4.4 5-5.6 8-4 8 .7-12.8-.9-14a22.6 22.6 0 0 0-10.2-12c-6.8-4.7-3.7 10.6-8.4-1-3.3-4-9.3-5-14-6.8-4.7-1-8.8-3.7-13.4-4.4-5.4-2.3-18.8 7.8-15-4.4 0-2.9 5-15.7 1.4-15.5-10.4.3-57 4-67.6-.8.3-2.8 5.1-2.9 7.4-2.8 19.5.4 39.2-.8 58.6.6 12 1.8-2-40-5.2-46.2-1.7-15.5-134.5.9-133.5-13.7l-3-18.7c-2-7.5 8-6 12-8.7 1.6-1 1.5-3.3 3.2-4.3 1.6-.9 3.6-1.3 3.7-3.5-1.4-8.9 3.2-24.4-8.5-26.7-6-1.8-17 1.5-19-6.5-1.8-5.2-1.4-11.4-4.9-15.8-29-11.6-61.2-12.5-92.2-12.3-8.7 1.3-4.1-9.5-7-14-2.2-5.2-10.7-5.6-13.4-.6-3.2 5.3 1.1 13.2-6 15.3A463 463 0 0 0 92 44.3c-13.7 6-6.6 23-4.8 33.9-1 15.3-2.8 30.7-4 45.8 0 5.1-4.2 6-8.4 6.5-17.5 2.8-34 10-50.3 16.6-7.9 3.6-5 13.9-3.2 20.4.4 2.1 2.5 4 3.6 5 1 3-3.4 5.5-3.6 8.6-2.5 11.6-10.1 21.6-15.2 32-1.8 4.6.2 8.8 0 13.4-1.7 8 .5 17.7-5.2 24-1.7 5.5 1.5 11 4 15.7a314 314 0 0 1 3.7 20.4c0 3.3-1 6.2.2 9.4 1 4.6 3.6 7.4 6.7 10.8 4.2 7.7 9.3 15.1 11.6 23.4a23 23 0 0 0 5.5 6.9c9.4 4.5 18.7 9.5 27.5 15.3 2.5 1.8 6 2 9.2 2 3.6.3 5.6-2.1 8.6-3.3 6.2-1.7 12-4.1 17.2-7.8 10.6-3.7 13-6.6 16.3-17.3 3-5.4 5.7-10.8 8.6-16.2 5-5.4 8.2-12.2 6.4-19.7.2-3 3.4-3.1 5.8-2.8l31 3c5.8.6 14.5-.1 15.1 7.7l2.3 17.7c0 4.8-1.4 9.3.8 13.9 5.3 8.2 11 16.7 15 25.6a21.1 21.1 0 0 0 8 13.6c10 5 19 12.7 27 20.3 4 2.7 8.9 3.4 13.7 2.6 6.7.6 13.5 1.3 20.2 1.7 3.5 0 5.9 2 9.4 1.4 1.4-.4 6.9-1 5.5-3.2-3.7-3.6-8.5-6.2-12.4-9.3-1-.6-3.4-2.8-1.3-3.4 9.2-1.4 13.6 8 20.4 9.3 6-2 11.2-6.6 17-9.5 4.4-1.7 8.5-3.5 11.4-7.4 1.8-2 1.9-4.5 2.8-7 3.2-4.8 8.2-8.7 8.9-15 2.1-6 8.5-8.7 9-15.6.4-4.4-1-9 .4-13.6.7-3.4 1-5.9-2.2-2.1-1.8 2-15 16.2-16 11.5a40.7 40.7 0 0 1 25.7-23.3c5-.8 9.6-1.7 14.6-2.4 5.9-.8 5 6.8 6 10.6 1.2 7.3 8.3 11 12 16.7 3 4.1 6.9 7.6 10.4 11.4 3.2 4.3 6.8 8.3 12 10 12.2 1.7 23.1 9.4 35.5 10 9.3-1.2 18.4-4.6 27.5-7.1 11.8-2.7 15.4-5.5 23-14.9 3.8-3.5 6.7-7.8 10.2-11.7 5.7-5.1 10.5-11 9.8-19 1-6.5 2.7-12.8 4-19.2 2.2-5.7 4-12.4 1.8-18.5Zm-225-213.6c2 5.2.8 11.5 1.5 17.1 0 2.7 1 6.4-.9 8.2-2.3 1.8-7 2.4-7-1.7-1.3-7.5-2.8-15-3.9-22.7-.2-3.3 3.3-2.3 6.2-2.1 1.4.1 3 .1 4.1 1.2Zm-39-28.5c6 .4 11.9 2.9 18 4 1.2.4 2.7.6 3.3 1.9.3 1.6 1.7 9.9-2.1 8.9-6.3-1.7-13.8-1.6-19.5-4.5-.8-2.4-1.3-8.5.2-10.4ZM207.3 27c.9 1 .7 2.4.8 3.6-.3 2.7 1 6.4-2.2 6.5L181.4 36c-4.2 0-4.5-3-4.9-6.7-.5-2.6.3-4.2 3.2-4.2 9.1.1 19.1-1.4 27.7 2Zm-36 14c29.2-2.4 59.6 3.2 88.7 6.7 3.6.2 6 2.6 6.3 6.1l10.1 62c.1 1.5.8 3.2-.8 3.2h-74.2c-1 .1-1 .7-1.2 2.2l-2.8 60.6c0 2.5 0 5-3.3 4.8-4.8-.6-17.2 1.3-22-.8a1345 1345 0 0 1-.9-144.8ZM208 158.3c5-.4 12.6 0 18-.1 1.8 0 1.7.2 1.7 2.2V177c-.3 3.3 1 5.6-2 7-2 .2-18.7 9.7-18 6.3.3-5-.5-24.3.3-32Zm-10.7 48.1c-.6.6-2 .6-3 .6-5.8-.7-12.5.3-18.3-1.6-1.5-1-1.2-4-1.4-6.3.2-1.7-.8-5.2.5-6.2 5.6-.6 16.5-.2 20.9-.2 1.7-.4 2.5 13 1.3 13.7ZM83 249.1c.3-1 2.4-.7 3.5-.6 12 2.4 21.7 9.2 24.2 17 .4 1.1.5 2.5-1.2 1.7-8.6-6-19-11-26.5-18.1Zm21.3 46.5C96.7 294 90 287.9 84.7 282c-1-1.4.8-1.3 1.8-1.1 8 1.4 17.1 7.1 17.8 14.7Zm-27.5-79.3c2.4.1 6.9.3 8.7 2.1.3 1.1 1.7 5.6-.6 5-1.3-1.2-10-5.3-8.1-7Zm-15.1-25c-.8-2.4 8.8-.2 10.4-.3 3.3.2 5.2.5 6.3 3.8 1.2 2.4 1.7 5-1.8 3.4-4.8-2.4-10.7-3.6-15-6.8Zm29.8 35.2c0-1.4 7.2-.4 8.6-.6 2.4.4 3.3 3.2 5 4.9 4.2 6-12.4-3.5-13.6-4.3Zm16.6 23c2.7-8 8.2-16.3 14.6-21.7a52 52 0 0 1-14.6 21.8Zm.8-114.1c2-1.9 7.2-.2 8.4 2.7 4.3 6 8.6 12.1 12.7 18.3 6.8 12 32 46 19 57.6-2.1.7-3.7-1-4.6-2.9C133.1 186 119 161 109 135.4Zm25.8 14.4c-13.8-3.2 14-4.6 17-5.2 10.7 2.5-15.2 5.3-17 5.2ZM148 42c.6-1 5-3 5.2-1.8.2 6 0 33.5 0 39.6.2 1.8-1.8-.3-2.5-.8-2.9-2.3-5.4-4.5-5-8.3 1.1-9.4 0-19.6 2.3-28.7ZM98.5 56.2c5.3-4 12.7-4.4 19-6.9 3.7-1.3 5.2-.1 5 3.9-.2 5.7-.6 11.2 0 16.8 0 8.8 11.6 2.9 16.6 5.8 4 2.5 7.5 6.3 11.2 9.3 1.6 1.4 3.6 2.8 3.4 5.1v29c.3 4.8-.1 11.9-1.3 3.7-1.3-5.6 2-16.1-4-19.2-1.4-.6-3.2-.7-3.1 1.3-.2 7 .2 22.2-.2 30-.6 2-4.2.8-6.1.9-3.1-.3-6.8-.4-8-4-1.4-3.7-1.4-9.2-3.6-12.3-6.1-3.8-14.8-2-21.7-3.3-5.6-1.5-5 7-3.3 9.6 5.4 3 14.2-1.2 18.5 4.2.9 1 6.2 10.7 2 6.9-2.3-2-4-6.2-7.4-6.4-5.6-.2-17.2.2-22.6-.2-2.1-.4-1.3-3.3-1.2-5 2.8-23.2 2.2-46.9 6.8-69.2ZM74.7 144c17.2 20.3 25.8 46.8 33 72.2.4 1.8.5 4-1.6 4.5-2.4.5-6.4 1.1-7.6-1-3-24.1-13.5-45.2-26.3-65.4-1.2-2.5-4.4-5.3-2.7-8 1-1.4 3.4-2.8 5.2-2.3ZM68 174c1.9 1.4 5.7 7.5.5 6l-20-4.3c-.7-.2-1.9-.5-2-1.3 1.9-3.2 18.6-2.5 21.5-.5Zm-35.8-15.2c3-3.5 9.7-4.8 14.2-5.2 3.7-.6 12.4 1.5 6.5 5.5a68 68 0 0 0-19.7 11.1c-.8.6-3.6 2.2-3.2.3 4-4.5.6-7.6 2.2-11.7Zm3.2 147.3c-20.4-17.7-22.8-56.3-15-80.7 2.9-9 10-22.3 21.4-18 1.6.5 3.4 2 1.7 3.6-23.1 20.8-19.5 60.5-5.5 85.8 1.8 3.9 7 6.6 8.2 10.5-2.6 3-8.2 1-10.8-1.2Zm19.8-15.5c-6.1 7.5-12.4-3.4-14.1-9a86.6 86.6 0 0 1-2.3-50C40 227 44 218.2 50 222c2 .3 9.7 12.3 5.6 11.3-1.5-.7-3.7-3-5.8-2.3-12 5.9-9.5 59.4 8.9 50.5 1.7.8-2.6 8.1-3.5 9.2Zm5 31.3c8.7-1 17.3 5 19.8 12 .8 2.1.2 2.8-1.9 1.6-5.8-3.7-14.6-7.5-18-13.7Zm15.1-15.7c7.2-2.2 15.7 3 17.9 9.2.7 1.7 0 2.2-1.7 1.5-5.6-2.6-13.4-5-16.2-10.7Zm22.2 25.6c4-7.9 11.1-15.3 18.4-20.5 0 3.5-12.5 17.5-18.4 20.5Zm25.8-41.7c-4.4 4.6-8.5 10-13.1 14.4-2.4 1.4-2.1-1.6-1.1-2.9a64.2 64.2 0 0 1 15.8-16.2c3.7-.6-.5 3.6-1.6 4.7Zm-16-10a63 63 0 0 1 19.5-20.7 57.7 57.7 0 0 1-19.4 20.8ZM130 241c-1 1.9-2 .7-2.2-1-.6-5-2.7-10.2-2.3-15.2 1.3-1.9 8.8-2.6 11-2.2.8.5.4 1.6.1 2.3-2.3 5.7-4 11-6.6 16.1Zm16-9.8c.7-1 39 3 27.2 4.3l-24.5 1c-3.2.9-4.6-3.3-2.7-5.3Zm9.3 20.2c10.6-5.4-1.4 14 10.2 19.6.6.5 2.4 1.5 2.3 2-8 1.9-16-12-12.5-21.6Zm23.5-6.9c-9.1 1.6-18.7 1-28.3 1.7-2.7.4-4-.9-3.7-3.8.4-2.2 2.3-2 4-1.8l25.9 3c.6.1 2.3.3 2 1ZM199 225c-7.4 2.8-31.1 3.9-31.8-7.6-6.5-68.6-3.5-137.8-4-206.5.8-5.8 3.3-3.5 3 .8.6 68-2.4 136.3 3.7 204 .1 13.4 32.1 4 29 9.2Zm26 130.6c-23.1-17.4-30.2-57.8-24-84.7 2.3-9.7 8.8-24.3 21.1-20.6 1.7.4 3.5 1.7 2 3.6-23.8 24.8-14.2 78.7 11.3 99.4 8 5.8-8 5.7-10.4 2.3Zm21-18.8c-4.7 8-11.8 1.6-14.9-4.2a91.5 91.5 0 0 1-9.4-56.9c1.9-14.5 12.1-15.3 18.5-2.5 4 7.4-7.3-1.8-8.1 15-.7 12.8 2 26.2 9.8 36.6 4.7 4.7 8.7 4 4.1 12Zm3-123c11.7-5.4 31.6-.9 38.1 6.4.8 1 .4 1.3-.9 1.2-12.3-2.6-25.5-4.1-37.1-7.7Zm56.3 32.2c-12.8-3.4-25.7-7-37.9-12.5-.6-.3-2.1-1-2-1.6 12.4-2.4 34.7 5.1 39.9 14.1Zm-13-13.8c-1.2-5 3-11 8.2-11 1.4 4.9-3.6 11.6-8.3 11Zm22.3 45.9c-.4.3-1.7-.3-2.3-.5-10-5-22-9-29.8-17 11.7.5 26.4 6.7 32.1 17.4v.1Zm-4-14.4c-1.1-7 4.5-18.8 10.5-22.2 1.2 6.5-4.7 19.5-10.5 22.2Zm-30.3 97c8.9-2.5 19.7 5.5 22.6 14 .2 1.1 0 1.8-1 1.3-7.2-5-15.5-9.4-21.6-15.3ZM318 351a65.3 65.3 0 0 1-26.6-18.3c7.5-1.6 24 9.6 26.6 18.3Zm-28.3-54.4c.1-.9 2.2-.6 3-.5 13 2.4 25.2 11 27.5 18.8.4 1.2.3 2.4-1.3 1.5-9.4-6.5-20.7-12.2-29.2-19.8Zm27.5 1c.7-8.4 9.4-21.5 16.8-25.2-.3 7.9-9.7 22-16.8 25.2Zm-109-150.7c-1.5-1.7.3-14.8 1.2-16.9H335c1.2.4 1 1.4 2.2 3.3 1.6 2.8.3 4.8-3.1 4.7-41.8 2.3-84.2 8.6-126 9Zm284.9 115.5c2.9-5.2 4.8-14 9.9-17.1-2.2 6.7-6.3 13.9-9.6 20.4-2 1.9-1-2.2-.3-3.3Zm-5.6-16.7c-7.1-1.6-14-5-21.2-7.2a6 6 0 0 1-2.3-1.4c-3.7-11.6 22.2 5.1 23.5 8.6Zm3.8 29.9c-.4.8-2.2-.3-2.8-.7-3.4-2.8-16-7.5-16.5-11.3.6-2.2 2.4-5.1 4.7-2.7 4.8 5.2 10.8 9.2 14.6 14.7Zm-135.2-90.3c4 .8 78.5-4.3 63 4.2-19.7.8-39.6.1-59.3.3-2.1 0-5.6.2-6.1-2.3 0-1.1 1-2 2.4-2.2ZM410 212c-3.6-1-72.2 3-58.4-3.3 2.3.4 82.7-2.9 58.4 3.3Zm1.9 9.2c.3 1.8-3.4 1.9-5 2-18.9 0-38 .5-56.9-.3-11.5-2.5 52-6.9 61.9-1.7Zm-57.1-21.7c-6.5-1.6.3-3.9 3.4-3.4 4 1 70.2-3 58.9 3.1-20.6 1.1-41.6.4-62.3.3Zm-9.5-72.1c3.5 7.8 2.8 18.6 4.9 26.8 5.9 3.7 51 .2 57.3 1.4 2.1.8-2.2 2-3.2 1.8-18.2.3-37.2 4-55.6 1.4-4.5-2.6-6.4-22.1-7.6-27.7-.8-2.6 1.7-5.6 4.2-3.7Zm-5.3 102c1.3-17.3 5.4-34.7 7.8-52.4.2-2.2 1.8-4 4.1-3 2 .6 2.1 2.4 1.7 4.2l-12 48.5c-.3.8-1 3.1-1.6 2.7Zm9.7 5c-2.9.7-6.4-4.6-2-4.2h58.9c1.3 0 1 1.9 0 3-1.1 1.2-3.3 1.2-5 1.2h-51.9Zm5.7 16.9c-13-8.4 57.3-7.3 60.9-7.1-14.6 3.4-38.9 4.7-57 7.5-1.3.2-2.8.3-3.9-.4Zm94 51.4c-30.7 64.2-95.2-6.8-69.6-10.3 13-5.1 9.2 5.5 16 13a23.7 23.7 0 0 0 37.6 1.6 46.4 46.4 0 0 0 4-55.1c-1-1.6-1.9-3.3.3-1.8 15.9 12.1 20 33.7 11.7 52.6ZM446 214c-1.2-2.6 1.2-6.1 4.2-4.3l20 8.5c11 5.7-23.8-2.6-24.2-4.2Zm32.6 119c-5.4-4-9.6-9.9-14.5-14.6-2.4-1.9-.9-4.8 1.6-5.6 3.8.3 9.4 14 12.3 17.3.3.6 1.7 2.7.6 2.8Zm-6.8-40.3c0-2.6 3.3-5.9 5.2-2.8l11.5 14c6.3 8-16.6-10-16.6-11.2Zm14.5 29.7c1.6-6.2 13.3-18.8 17.7-19.7a205.2 205.2 0 0 1-17.7 19.7ZM493 297c-.8-3.3 9-20 13.7-23.3-3.9 7.7-9 15.8-13.7 23.3Z"/>
  <path fill="rgba(230,230,230,0.2)" d="M210.3 79.4c1-1 1.5-2.4 1.8-3.8 1.4-5.7 2.5-11.6 4.2-17.3.7-2.3 3.2-2.7 5.4-2.3 3.4.5 7 .5 7.3 4a160 160 0 0 1-.9 17.2 31 31 0 0 0 2.4 17c1.6 4.3 5.7 4 9.8 4 3.6.3 10.5-1.8 11 3.3.2 3.2 0 6.5.1 9.8 0 2.2-1 4.2-3.4 4-15-.8-29.7-2.3-44.8-3.3-4.9-.4-4.5 4.8-5 8.7-1 7.1-1.5 14.4-2.8 21.5-.6 2.4-3 2.3-5 1.6-4.2-1.3-8.4-2.1-12.4-3.8-1.9-1-2.6-3-2.7-5-.5-9.5-1.2-18.9-1.5-28.4-.1-3.5 4.8-4.1 7.1-2.3 1.3 1.1 1.4 3.5 1.6 5.8l1 10c.3 3.5.2 7 3.8 7.7 3.7.8 5.5-.9 5.3-4.6v-37c0-1.2.1-2.6.9-3.5.7-1 2-1.3 3.1-1.4l9-.6c1.7 0 3.5-.3 4.6-1.2v-.1ZM175 147.8c.7-.4 1.7-.2 2.4 0l11.2 3.6c1.8.5 3.3 1.8 3.5 3.7l1 25.3c0 1-.2 2.4-1 3-.6.5-1.4.6-2.2.7h-11.8c-1.9.1-3.8-.7-3.8-2.9v-30.7c0-.9 0-2.1.7-2.6Zm82.3-34.6c-.7-1-.6-2.5-.2-4.2.5-2.2.6-5.3 2.3-6.7 1.8-1.4 5-.7 7 .8 2 1.4 2.7 3.7 3.6 5.8 1.2 3.1 3.4 7.1-1 6.9l-7.3-.9c-1.9-.2-3.5-.6-4.3-1.6v-.1Z"/>
</svg>
