<svg xmlns="http://www.w3.org/2000/svg" viewBox="0 0 361.3 361.1">
	<path fill="rgba(30,30,30,0.1)" d="M174.5 132.4V6c.3-3 2.4-5.4 5.3-5.8 2.6-.4 5.1 1 6.3 3.7l1 2.3h64.4c8.4 0 13.3 4.7 13.3 13.1v20.1c0 2.2.7 2.9 2.8 2.9h26c8.5 0 13.4 4.8 13.4 13.3V101c0 8.5-4.7 13.3-13.2 13.3H218c-8.6 0-13.1-4.6-13.2-13.2V81.3c0-2.2-.4-3.2-2.8-3h-15v54.1h3.8c52 0 104.2.1 156.4-.1 8.6 0 14.4 5.7 14.1 14-.3 11 0 22 0 33 0 8.3-5 13.3-13.3 13.4h-14c-2.3-.1-3 .7-3 3 .2 6 .2 12 0 18 0 2.1.7 3 3 3 4.7-.2 9.4-.2 14-.1 8.3 0 13.2 5 13.2 13.4v33.8c0 8-5 13-12.9 13-4.7 0-9.5.1-14.3 0-2.3 0-3 .8-3 3 .2 6.1.2 12.2 0 18.3 0 2 .7 2.9 2.9 2.8h14.6c7.8 0 12.7 5 12.7 12.9v34.1c0 8.3-5 13.2-13.3 13.2H14.5c-10 0-14.5-4.5-14.5-14.5v-32.3c0-8.6 4.8-13.4 13.5-13.4h14c2 0 2.7-.6 2.7-2.6v-18.9c0-2-.8-2.6-2.7-2.6h-15c-7.4 0-12.4-5-12.5-12.5v-35a12 12 0 0 1 12.4-12.7h15.2c1.8 0 2.6-.6 2.6-2.5V195c0-1.7-.7-2.3-2.4-2.2H13.2c-8.1 0-13.2-5-13.2-13.2V146c0-8.8 4.8-13.6 13.5-13.6h161ZM349 144.8H12.3v35.6h336.5v-35.6Zm-234 132H46.5q-4.3 0-4.3 4.4c0 6.5.4 13 0 19.5-.5 5.5 1.9 9.2 6.1 12A32 32 0 0 0 57 317c17.4 4.5 33.4 2 47-10.7 4.5-4.2 9.5-4.7 14.9-1.8 1.7 1 3.5 2 5.4 2.8a48 48 0 0 0 27.1 5c7.2-1 14-3.5 20.3-7 6.7-3.6 12-2.5 16.8 3.3 3 3.8 7 6.6 11.6 8 17.3 5 33.4 3 47.3-9.4 6-5.4 10-6 17-2a52 52 0 0 0 27 7.5c9-.3 17.3-3.3 25.2-7.6 1.7-1 2.5-2 2.4-4V280c0-2.3-.5-3.2-3-3.2h-79.3c-1.8 0-2.9.5-3.6 2.4a23.6 23.6 0 0 1-22.1 15.7 23.6 23.6 0 0 1-22.7-15.5c-.8-2.2-2-2.6-4-2.6H115Zm141.8 38a56.1 56.1 0 0 1-39.5 16.2c-15.2.1-29.1-3-39.2-15.7l-2.6 1.5a61.4 61.4 0 0 1-33.4 7.8 66.9 66.9 0 0 1-27.4-8.6c-1.7-1-2.8-1-4.2.5-1.6 1.6-3.5 3-5.4 4.4a58.9 58.9 0 0 1-43 9.6 39 39 0 0 1-29-16.2c-.3-.6-1.2-1.2-1.8-1.2h-19v35.7h336.4V313c-4.5 0-8.9.2-13.2 0a22 22 0 0 0-15.3 3.7c-1.8 1.3-4.1 2-6.3 3a58.2 58.2 0 0 1-33 4.2 77.7 77.7 0 0 1-24-9ZM102 238.2l2.5-2.3c4.9-4.8 9.8-9.5 14.5-14.5a15 15 0 0 1 11.6-4.9H179c12.2.1 19.8 7.7 19.8 19.8v33.3c0 1.7.2 3.5.7 5 1.8 5.7 7.4 9 13.1 8 5.8-.9 10-5.6 10.1-11.6.1-11.7-.1-23.5.2-35.3 0-3.3.8-6.8 2.3-9.6 3.4-6.7 9.4-9.5 16.8-9.5h72.9q4.2 0 4.2-4.4V197q0-4.3-4.3-4.3H44.6c-2-.2-2.5.7-2.4 2.5v18.3c-.1 2.6.9 3.2 3.3 3.1h28c5-.1 9 1.5 12.5 5.2 5.2 5.6 10.6 10.9 16 16.5Zm-89.8 26.6h171c2.7 0 3.5-.7 3.4-3.4-.2-8.4 0-16.8 0-25.3 0-5.2-2.3-7.4-7.5-7.4h-47.5a9 9 0 0 0-4.7 2c-5.2 5-10.2 10.3-15.4 15.3-5.8 5.8-12.7 5.8-18.5 0-5.1-5.1-10.1-10.3-15.4-15.2a7.6 7.6 0 0 0-4.7-2H12.4v36Zm222.5-.3h114v-35.8H240c-3 .7-5 2.4-5.1 5.4-.2 10 0 20.1 0 30.4Zm-48-198.4 2.1.1h61c2.3 0 2.8-.8 2.8-3 0-13.9 0-27.8.2-41.7 0-2.7-.7-3.4-3.4-3.4-20 .1-39.8 0-59.7 0l-3 .2v47.8Zm41.2 35.8 1.8.4h62.8c2 0 2.3-.8 2.3-2.6v-43c0-1.7-.4-2.5-2.3-2.5h-25.3c-2 0-2.5.8-2.4 2.5v9.5a12 12 0 0 1-5.2 9.9c-2.7 2-5.4 4.3-8 6.5L228 101.9Zm-11.3-6.5 20-16.3-.3-.8h-18.2c-.5 0-1.4 1-1.4 1.5l-.1 15.6Z"/>
	<path fill="rgba(30,30,30,0.1)" d="M93.5 168.4H67.2c-4.3 0-7-2.2-7-5.9 0-3.5 2.7-6 7-6h52.4c4.2 0 6.9 2.5 6.8 6.1 0 3.7-2.6 5.8-7 5.8h-26Zm-54.5 0h-3.4c-2.9-.2-5-2.3-5.3-5.2-.3-3.1 1.3-6 4.3-6.4 3-.4 6-.4 9 0 3 .3 4.8 3.2 4.6 6.2a6 6 0 0 1-5.6 5.4H39Zm108.4 0h-3.3c-3-.2-5.4-2.4-5.6-5.4-.2-3 1.5-5.7 4.5-6.2a33 33 0 0 1 8.2-.2c3.4.3 5.4 3 5.2 6.3-.2 3.2-2.5 5.4-6 5.5h-3Zm18.3 72.4h3.3c3 .2 5.2 2.4 5.5 5.1.3 3-1.3 6-4.3 6.5s-6.2.5-9.3 0c-3-.4-4.7-3.4-4.3-6.4.4-3 2.6-5 5.7-5.2h3.4Zm111.1 0H300c4.4 0 7 2.2 7 5.9.1 3.5-2.6 6.1-6.8 6.1h-46.3c-4.5 0-7-2.4-6.9-6.3.1-3.7 2.5-5.7 7-5.7h23Zm51.2 0h3.3c3 .2 5.2 2.2 5.6 5 .4 3.3-1.2 6.2-4.4 6.7-2.9.4-6 .4-9 0-3-.5-4.7-3.4-4.4-6.3.2-3 2.5-5.2 5.6-5.4h3.3Z"/>
  </svg>